<svg width="149.499" height="75.586" viewBox="0 0 149.499 75.586" xmlns="http://www.w3.org/2000/svg"><g id="svgGroup" stroke-linecap="round" fill-rule="evenodd" font-size="9pt" stroke="#000" stroke-width="0.25mm" fill="black" style="stroke:#000;stroke-width:0.25mm;fill:black"><path d="M 73.828 19.434 L 73.828 18.359 Q 73.73 17.578 73.486 16.943 A 155.579 155.579 0 0 1 73.23 16.272 A 211.225 211.225 0 0 1 72.949 15.527 A 21.916 21.916 0 0 1 72.324 13.824 A 25.985 25.985 0 0 1 72.07 12.988 A 9.518 9.518 0 0 1 71.792 11.612 Q 71.68 10.759 71.68 9.766 Q 71.845 8.94 72.08 8.498 A 1.746 1.746 0 0 1 72.168 8.35 Q 72.435 7.949 72.702 7.67 A 3.425 3.425 0 0 1 72.754 7.617 L 73.145 5.859 L 74.609 5.859 A 12.984 12.984 0 0 0 76.221 5.957 L 77.832 5.957 Q 81.543 5.957 85.449 5.664 Q 89.355 5.371 93.457 4.98 A 123.388 123.388 0 0 1 99.339 4.362 A 150.887 150.887 0 0 1 103.125 4.102 Q 103.598 3.06 103.751 2.753 A 5.514 5.514 0 0 1 103.76 2.734 L 104.102 2.051 L 105.176 1.465 Q 107.422 1.367 108.301 2.002 A 10.346 10.346 0 0 1 108.905 2.471 Q 109.191 2.712 109.418 2.945 A 4.938 4.938 0 0 1 109.668 3.223 Q 112.207 3.027 114.844 2.686 Q 117.48 2.344 120.313 1.953 A 2654.378 2654.378 0 0 1 128.223 0.977 A 64.869 64.869 0 0 1 135.558 0.49 A 59.694 59.694 0 0 1 136.035 0.488 Q 137.695 0.488 139.16 0.586 A 38.254 38.254 0 0 1 141.649 0.832 A 34.916 34.916 0 0 1 141.992 0.879 L 143.164 1.758 A 6.01 6.01 0 0 0 144.141 3.027 A 11.442 11.442 0 0 0 144.862 3.687 A 14.641 14.641 0 0 0 145.508 4.199 Q 146.973 5.371 148.389 7.129 Q 149.805 8.887 149.414 12.305 L 148.926 13.281 A 5.266 5.266 0 0 1 148.517 13.647 Q 148.295 13.827 148.031 14.007 A 8.932 8.932 0 0 1 147.949 14.062 L 146.973 15.332 L 145.898 15.332 A 10.458 10.458 0 0 0 145.388 15.344 Q 144.926 15.366 144.612 15.433 A 2.276 2.276 0 0 0 144.434 15.479 Q 144.098 15.579 143.67 15.749 A 16.439 16.439 0 0 0 143.262 15.918 A 5.002 5.002 0 0 1 142.763 16.133 A 6.315 6.315 0 0 1 142.383 16.26 A 32.401 32.401 0 0 0 141.87 16.418 A 43.188 43.188 0 0 0 141.309 16.602 Q 140.423 16.521 139.87 16.507 A 8.684 8.684 0 0 0 139.648 16.504 L 138.281 16.504 A 50.504 50.504 0 0 0 134.831 16.628 A 64.243 64.243 0 0 0 131.934 16.895 A 183.335 183.335 0 0 0 125.343 17.766 A 167.88 167.88 0 0 0 125.293 17.773 A 418.014 418.014 0 0 1 121.887 18.185 A 365.652 365.652 0 0 1 120.801 18.311 A 1842.244 1842.244 0 0 1 118.75 18.542 A 1363.71 1363.71 0 0 1 116.895 18.75 A 452.734 452.734 0 0 1 116.077 20.86 Q 115.701 21.823 115.36 22.681 A 259.389 259.389 0 0 1 115.137 23.242 Q 114.355 25.195 113.477 27.148 Q 112.598 29.102 111.816 31.104 A 42.561 42.561 0 0 0 110.968 33.495 A 54.503 54.503 0 0 0 110.352 35.547 A 32.43 32.43 0 0 0 109.277 37.268 A 25.299 25.299 0 0 0 108.398 38.916 A 16.059 16.059 0 0 0 107.612 40.868 A 20.558 20.558 0 0 0 107.129 42.578 A 10.537 10.537 0 0 0 105.452 45.116 A 9.603 9.603 0 0 0 105.029 46.191 A 170.178 170.178 0 0 1 104.574 47.574 Q 104.393 48.116 104.226 48.6 A 85.977 85.977 0 0 1 103.906 49.512 L 103.516 50.977 Q 103.008 51.484 102.797 51.83 A 1.32 1.32 0 0 0 102.686 52.051 Q 102.579 52.335 102.344 52.67 A 5.176 5.176 0 0 1 102.148 52.93 Q 101.855 54.199 101.367 55.371 A 33.557 33.557 0 0 0 101.074 56.131 A 37.984 37.984 0 0 0 100.977 56.396 A 2.831 2.831 0 0 0 100.908 56.61 Q 100.822 56.922 100.856 57.134 A 0.599 0.599 0 0 0 100.879 57.227 A 6.946 6.946 0 0 1 100.73 57.879 Q 100.643 58.186 100.533 58.438 A 2.853 2.853 0 0 1 100.293 58.887 A 7.117 7.117 0 0 1 100.195 60.059 L 100 61.23 A 16.069 16.069 0 0 0 99.848 61.801 Q 99.783 62.062 99.736 62.297 A 9.074 9.074 0 0 0 99.707 62.451 A 1.969 1.969 0 0 0 99.674 62.804 A 1.796 1.796 0 0 0 99.805 63.477 L 100.391 64.258 A 2.868 2.868 0 0 1 100.659 64.697 Q 100.766 64.911 100.854 65.162 A 4.825 4.825 0 0 1 100.879 65.234 A 1.176 1.176 0 0 0 101.235 65.476 A 1.444 1.444 0 0 0 101.367 65.527 A 1.33 1.33 0 0 1 101.666 65.668 A 1.128 1.128 0 0 1 101.855 65.82 A 4.64 4.64 0 0 0 102.334 66.19 Q 102.592 66.362 102.839 66.465 A 1.979 1.979 0 0 0 103.32 66.602 L 104.297 67.773 Q 104.622 69.726 104.255 71.196 A 4.967 4.967 0 0 1 103.223 73.242 Q 101.784 75.08 98.776 75.414 A 12.82 12.82 0 0 1 97.363 75.488 L 95.996 75.391 A 21.485 21.485 0 0 1 95.76 75.151 Q 95.294 74.67 95.215 74.512 A 109.155 109.155 0 0 0 94.794 74.326 Q 94.23 74.078 93.809 73.902 A 37.165 37.165 0 0 0 93.75 73.877 A 2.091 2.091 0 0 1 93.188 73.523 Q 92.92 73.291 92.676 72.949 A 0.864 0.864 0 0 0 92.233 72.714 A 1.069 1.069 0 0 0 92.188 72.705 A 0.928 0.928 0 0 1 91.883 72.601 A 0.842 0.842 0 0 1 91.699 72.461 Q 90.974 72.243 90.464 71.972 A 3.863 3.863 0 0 1 90.137 71.777 L 89.063 71.191 A 39.178 39.178 0 0 0 89.105 70.743 Q 89.16 70.118 89.16 69.824 A 8.925 8.925 0 0 1 87.939 67.48 A 22.403 22.403 0 0 1 87.207 64.844 A 503.575 503.575 0 0 0 86.926 63.818 A 373.796 373.796 0 0 0 86.67 62.891 A 5.112 5.112 0 0 0 86.193 61.728 A 4.582 4.582 0 0 0 85.938 61.328 A 55.267 55.267 0 0 1 85.915 59.75 Q 85.915 53.946 87.207 49.854 A 128.519 128.519 0 0 1 90.43 40.82 A 104.244 104.244 0 0 0 92.285 36.035 A 63.217 63.217 0 0 0 93.848 31.055 L 94.922 29.98 A 24.45 24.45 0 0 1 95.161 29.778 Q 95.518 29.48 95.697 29.36 A 0.99 0.99 0 0 1 95.801 29.297 A 6.651 6.651 0 0 1 96.289 26.807 A 51.688 51.688 0 0 1 97.218 24.633 A 56.666 56.666 0 0 1 97.363 24.316 A 33.681 33.681 0 0 0 98.096 22.754 A 8.295 8.295 0 0 0 98.318 22.195 Q 98.414 21.922 98.474 21.678 A 3.888 3.888 0 0 0 98.535 21.387 Q 97.897 21.387 97.386 21.429 A 9.653 9.653 0 0 0 97.314 21.436 A 14.671 14.671 0 0 0 96.49 21.535 A 16.948 16.948 0 0 0 96.191 21.582 A 11.427 11.427 0 0 1 94.511 21.845 A 9.781 9.781 0 0 1 93.75 21.875 A 12.735 12.735 0 0 1 93.341 21.869 Q 92.773 21.851 92.48 21.777 A 4.887 4.887 0 0 1 91.827 22.05 Q 91.465 22.169 91.126 22.207 A 2.875 2.875 0 0 1 91.016 22.217 A 19.183 19.183 0 0 1 89.648 22.266 L 88.477 22.266 L 87.305 22.266 Q 86.542 22.266 85.986 22.39 A 3.051 3.051 0 0 0 85.449 22.559 L 83.691 22.559 L 82.813 22.559 L 81.641 22.559 L 80.469 22.559 A 9.907 9.907 0 0 1 79.693 22.526 Q 79.23 22.49 78.711 22.412 Q 77.742 22.267 76.676 21.688 A 8.882 8.882 0 0 1 76.66 21.68 L 75.977 20.898 Q 75.417 19.873 74.947 19.738 A 0.551 0.551 0 0 0 74.902 19.727 L 73.828 19.434 Z M 6.559 23.66 A 18.871 18.871 0 0 0 11.133 26.27 A 5.527 5.527 0 0 1 12.079 26.02 Q 12.644 25.922 13.274 25.922 A 8.412 8.412 0 0 1 13.574 25.928 A 4.459 4.459 0 0 0 13.733 25.931 Q 14.993 25.931 15.82 25.195 A 8.302 8.302 0 0 1 15.901 24.655 Q 16.007 24.083 16.187 23.604 A 4.177 4.177 0 0 1 16.748 22.559 A 2.495 2.495 0 0 1 17.273 22.042 Q 17.664 21.755 18.194 21.585 A 5.024 5.024 0 0 1 19.141 21.387 A 12.252 12.252 0 0 1 19.297 22.365 Q 19.455 23.719 19.238 24.805 A 15.323 15.323 0 0 1 18.408 27.588 A 65.556 65.556 0 0 0 17.383 30.273 Q 16.895 31.641 16.992 33.398 A 53.208 53.208 0 0 0 16.941 33.523 Q 15.812 36.272 15.43 38.086 A 2586.819 2586.819 0 0 1 15.051 39.88 A 2094.871 2094.871 0 0 1 14.697 41.553 A 25.674 25.674 0 0 1 14.511 42.365 A 29.469 29.469 0 0 1 13.77 44.873 A 14.394 14.394 0 0 1 13.263 46.135 Q 12.957 46.809 12.548 47.569 A 35.812 35.812 0 0 1 11.719 49.023 A 2.257 2.257 0 0 0 11.72 49.106 Q 11.736 49.529 11.914 49.707 Q 12.109 49.902 12.305 50.195 A 3.878 3.878 0 0 0 11.035 51.904 A 15.605 15.605 0 0 0 10.4 54.004 Q 10.156 55.078 9.863 56.104 Q 9.57 57.129 8.691 57.813 Q 9.375 58.984 9.473 60.254 Q 8.789 60.449 8.496 60.938 A 3.442 3.442 0 0 0 8.275 61.376 A 4.207 4.207 0 0 0 8.057 62.061 A 7.729 7.729 0 0 0 7.961 62.55 A 9.241 9.241 0 0 0 7.861 63.428 A 20.491 20.491 0 0 1 7.848 63.61 A 18.693 18.693 0 0 1 7.715 64.844 A 10.931 10.931 0 0 0 7.894 65.371 A 9.429 9.429 0 0 0 9.082 67.627 A 5.147 5.147 0 0 1 9.127 67.691 Q 9.647 68.436 9.647 69.015 A 1.136 1.136 0 0 1 9.473 69.629 A 1.722 1.722 0 0 1 9.815 69.743 Q 10.451 70.034 10.84 70.85 A 6.087 6.087 0 0 1 10.921 71.028 Q 11.233 71.739 11.181 72.167 A 0.776 0.776 0 0 1 11.133 72.363 Q 11.789 72.56 12.225 72.779 A 3 3 0 0 1 12.598 72.998 Q 13.086 73.34 13.477 73.779 L 14.258 74.658 A 2.529 2.529 0 0 0 14.519 74.911 Q 14.703 75.066 14.939 75.214 A 5.737 5.737 0 0 0 15.43 75.488 A 2.482 2.482 0 0 1 15.526 75.397 Q 15.983 74.986 16.47 74.986 A 1.185 1.185 0 0 1 16.65 75 Q 17.126 75.073 18.015 75.201 A 448.353 448.353 0 0 0 18.652 75.293 A 3.083 3.083 0 0 0 19.027 75.07 Q 19.334 74.858 19.633 74.552 A 6.278 6.278 0 0 0 20.166 73.926 A 18.945 18.945 0 0 0 20.837 72.974 A 14.157 14.157 0 0 0 21.387 72.07 A 24.818 24.818 0 0 0 21.697 72.292 Q 22.173 72.627 22.719 72.98 A 42.765 42.765 0 0 0 23.926 73.73 A 18.378 18.378 0 0 0 25.189 74.425 A 14.375 14.375 0 0 0 26.758 75.098 A 10.078 10.078 0 0 0 27.41 75.307 Q 28.241 75.542 28.88 75.542 A 3.279 3.279 0 0 0 29.053 75.537 A 1.398 1.398 0 0 0 29.139 75.53 Q 29.985 75.433 30.078 74.316 Q 30.566 74.512 30.615 74.951 A 0.693 0.693 0 0 0 30.903 75.449 A 1.099 1.099 0 0 0 31.152 75.586 A 64.07 64.07 0 0 1 32.288 75.391 A 86.357 86.357 0 0 1 33.545 75.195 A 28.934 28.934 0 0 0 34.235 75.085 A 24.964 24.964 0 0 0 36.035 74.707 A 12.996 12.996 0 0 0 37.014 74.423 A 10.165 10.165 0 0 0 38.135 73.975 A 4.352 4.352 0 0 0 38.828 73.569 A 3.148 3.148 0 0 0 39.551 72.852 Q 45.605 71.973 51.221 69.482 A 96.692 96.692 0 0 0 62.012 63.867 Q 63.08 62.952 63.552 62.513 A 8.474 8.474 0 0 0 63.77 62.305 A 9.482 9.482 0 0 0 64.063 61.998 A 11.424 11.424 0 0 0 64.551 61.426 A 13.657 13.657 0 0 0 64.581 61.388 Q 64.869 61.025 65.356 60.364 A 99.908 99.908 0 0 0 65.723 59.863 A 27.727 27.727 0 0 1 66.041 59.435 Q 66.632 58.655 67.678 57.355 A 250.719 250.719 0 0 1 68.652 56.152 A 2.01 2.01 0 0 0 68.662 56.1 Q 68.726 55.731 68.686 55.181 A 7.842 7.842 0 0 0 68.652 54.834 Q 68.555 54.004 67.871 53.613 A 1.973 1.973 0 0 0 67.879 53.605 Q 68.456 53.021 68.359 52.148 A 4.856 4.856 0 0 0 68.292 51.723 Q 68.147 51.006 67.773 50.146 Q 67.285 49.023 66.748 47.803 Q 66.211 46.582 65.918 45.41 A 3.122 3.122 0 0 1 65.507 45.3 Q 65.265 45.216 65.083 45.099 A 1.196 1.196 0 0 1 64.648 44.629 A 13.18 13.18 0 0 0 62.256 41.65 A 36.55 36.55 0 0 0 59.277 39.16 A 110.832 110.832 0 0 1 56.201 36.768 Q 54.688 35.547 53.516 34.082 A 36.189 36.189 0 0 1 57.373 29.883 Q 59.473 27.93 61.328 25.732 A 21.374 21.374 0 0 0 64.404 20.898 A 11.788 11.788 0 0 0 65.294 18.023 Q 65.576 16.458 65.527 14.648 A 1.178 1.178 0 0 0 65.452 14.492 A 0.869 0.869 0 0 0 64.844 14.062 A 0.72 0.72 0 0 1 64.748 14.037 Q 64.366 13.903 64.453 13.379 A 5.801 5.801 0 0 0 64.452 13.282 A 4.852 4.852 0 0 0 63.721 10.742 A 8.89 8.89 0 0 0 63.382 10.239 A 9.802 9.802 0 0 0 61.865 8.594 A 45.847 45.847 0 0 0 59.521 6.689 A 13.91 13.91 0 0 1 58.932 6.216 A 11.885 11.885 0 0 1 57.422 4.688 A 2.452 2.452 0 0 1 56.655 4.567 A 2.685 2.685 0 0 1 55.811 4.102 A 37.579 37.579 0 0 1 55.054 3.479 A 48.172 48.172 0 0 1 54.248 2.783 A 12.244 12.244 0 0 0 52.441 1.465 A 3.972 3.972 0 0 0 51.479 1.049 A 4.677 4.677 0 0 0 50.195 0.879 A 0.79 0.79 0 0 0 50.097 0.926 Q 49.794 1.099 50.022 1.419 A 1.119 1.119 0 0 0 50.098 1.514 A 2.844 2.844 0 0 1 50.119 1.538 Q 50.456 1.926 50.14 1.865 A 0.805 0.805 0 0 1 50.098 1.855 A 8.32 8.32 0 0 0 49.849 1.69 Q 49.338 1.362 48.843 1.156 A 4.539 4.539 0 0 0 47.656 0.83 Q 46.484 0.684 45.898 0 Q 45.493 0.174 44.983 0.262 A 6.209 6.209 0 0 1 44.238 0.342 A 36.964 36.964 0 0 1 43.744 0.363 A 42.605 42.605 0 0 1 42.188 0.391 Q 41.113 0.391 40.137 0.439 A 5.325 5.325 0 0 0 40.11 0.441 Q 39.151 0.494 38.477 0.879 Q 36.823 0.785 35.23 0.826 A 33.821 33.821 0 0 0 28.711 1.611 A 149.744 149.744 0 0 0 27.441 1.901 Q 25.569 2.336 23.887 2.78 A 89.328 89.328 0 0 0 20.605 3.711 A 4.533 4.533 0 0 0 20.542 3.661 Q 20.164 3.37 20.122 3.482 A 0.098 0.098 0 0 0 20.117 3.516 Q 20.117 3.69 19.652 3.554 A 3.417 3.417 0 0 1 19.531 3.516 A 113.615 113.615 0 0 0 18.103 3.821 A 127.784 127.784 0 0 0 13.672 4.883 A 32.101 32.101 0 0 0 7.959 6.934 A 24.584 24.584 0 0 0 7.792 7.013 A 22.162 22.162 0 0 0 3.125 10.01 Q 0.977 11.816 0 14.453 A 27.861 27.861 0 0 0 0.659 15.953 A 23.822 23.822 0 0 0 4.346 21.582 A 16.705 16.705 0 0 0 6.559 23.66 Z M 54.102 45.117 A 26.162 26.162 0 0 0 51.408 43.813 Q 49.237 42.92 47.314 42.676 Q 45.867 42.492 44.484 42.492 A 19.396 19.396 0 0 0 41.455 42.725 A 38.701 38.701 0 0 0 36.451 43.849 A 35.587 35.587 0 0 0 36.133 43.945 A 35.724 35.724 0 0 1 31.055 45.117 A 189.811 189.811 0 0 0 29.761 48.608 A 246.377 246.377 0 0 0 28.418 52.441 Q 27.051 56.445 25.781 60.254 Q 29.297 59.766 32.227 58.789 Q 35.156 57.813 37.891 56.592 A 430.674 430.674 0 0 0 43.262 54.15 A 83.506 83.506 0 0 1 48.73 51.855 A 3.114 3.114 0 0 1 50 50 Q 50.977 49.316 51.953 48.682 A 8.469 8.469 0 0 0 53.059 47.831 A 7.148 7.148 0 0 0 53.613 47.266 Q 54.24 46.549 54.128 45.341 A 4.548 4.548 0 0 0 54.102 45.117 Z M 47.266 14.551 A 49.968 49.968 0 0 0 45.655 14.525 A 48.516 48.516 0 0 0 35.352 15.625 A 39.392 39.392 0 0 0 30.58 16.96 Q 28.184 17.806 26.206 18.916 A 22.997 22.997 0 0 0 25.488 19.336 A 31.121 31.121 0 0 0 29.541 22.266 Q 31.641 23.535 32.715 25.684 A 32.329 32.329 0 0 0 38.363 22.807 A 27.851 27.851 0 0 0 40.918 20.947 A 43.667 43.667 0 0 0 47.266 14.551 Z" vector-effect="non-scaling-stroke"/></g></svg>